<svg version="1.1" xmlns="http://www.w3.org/2000/svg" viewBox="0 0 712.4863366426518 1470.836882757745" width="712.4863366426518" height="1470.836882757745">
  <!-- svg-source:excalidraw -->
  
  <defs>
    <style class="style-fonts">
      @font-face {
        font-family: "Virgil";
        src: url("https://excalidraw.com/Virgil.woff2");
      }
      @font-face {
        font-family: "Cascadia";
        src: url("https://excalidraw.com/Cascadia.woff2");
      }
      @font-face {
        font-family: "Assistant";
        src: url("https://excalidraw.com/Assistant-Regular.woff2");
      }
    </style>
    
  </defs>
  <rect x="0" y="0" width="712.4863366426518" height="1470.836882757745" fill="#ffffff"></rect><g stroke-linecap="round" transform="translate(411.42187118530273 10) rotate(0 57.5 24.16666603088379)"><path d="M0 0 C22.55 -0.4, 49.31 2, 115 0 M0 0 C37.39 -0.48, 75.48 0.08, 115 0 M115 0 C114.07 17.6, 115.94 32.43, 115 48.33 M115 0 C115.21 14.98, 115.7 30.82, 115 48.33 M115 48.33 C89.02 46.55, 65.07 48.78, 0 48.33 M115 48.33 C68.64 49.77, 23.73 49.9, 0 48.33 M0 48.33 C-0.64 34.31, -0.68 18.45, 0 0 M0 48.33 C0.59 34.94, 0.92 20.26, 0 0" stroke="#1e1e1e" stroke-width="2" fill="none"></path></g><g transform="translate(428.92187118530273 22.16666603088379) rotate(0 40 12)"><text x="40" y="19.3125" font-family="Cascadia, Segoe UI Emoji" font-size="20px" fill="#1e1e1e" text-anchor="middle" style="white-space: pre;" direction="ltr" dominant-baseline="alphabetic">開始迴圈</text></g><g stroke-linecap="round" transform="translate(373.92187118530273 108.33333206176758) rotate(0 95 24.16666603088379)"><path d="M0 0 C57.59 2.38, 114.61 0.41, 190 0 M0 0 C53.44 1.14, 108.93 1.44, 190 0 M190 0 C190.58 12.47, 189.99 28.61, 190 48.33 M190 0 C190.45 10.51, 189.15 19.13, 190 48.33 M190 48.33 C134.84 47.34, 82.17 45.36, 0 48.33 M190 48.33 C116.77 49.82, 43.99 49.91, 0 48.33 M0 48.33 C-0.28 33.93, -0.2 19.81, 0 0 M0 48.33 C0.47 34.93, -0.19 22.24, 0 0" stroke="#1e1e1e" stroke-width="2" fill="none"></path></g><g transform="translate(398.92187118530273 120.49999809265137) rotate(0 70 12)"><text x="70" y="19.3125" font-family="Cascadia, Segoe UI Emoji" font-size="20px" fill="#1e1e1e" text-anchor="middle" style="white-space: pre;" direction="ltr" dominant-baseline="alphabetic">初始化遊戲環境</text></g><g stroke-linecap="round" transform="translate(386.42187118530273 206.66666412353516) rotate(0 82.5 24.16666603088379)"><path d="M0 0 C46.81 -1.62, 92.06 -3.12, 165 0 M0 0 C39.32 0.36, 77.51 -0.37, 165 0 M165 0 C165.44 17.17, 163.28 32.39, 165 48.33 M165 0 C164.38 13.45, 165.11 27.46, 165 48.33 M165 48.33 C131.04 47.4, 94.92 47.14, 0 48.33 M165 48.33 C107.72 49.99, 50.23 49.16, 0 48.33 M0 48.33 C-0.19 31.25, -0.54 17.4, 0 0 M0 48.33 C-0.35 31.62, -0.87 15.46, 0 0" stroke="#1e1e1e" stroke-width="2" fill="none"></path></g><g transform="translate(408.92187118530273 218.83333015441895) rotate(0 60 12)"><text x="60" y="19.3125" font-family="Cascadia, Segoe UI Emoji" font-size="20px" fill="#1e1e1e" text-anchor="middle" style="white-space: pre;" direction="ltr" dominant-baseline="alphabetic">獲得初始狀態</text></g><g stroke-linecap="round" transform="translate(128.80728912353516 304.9999942779541) rotate(0 81.66667175292969 81.66667175292969)"><path d="M82 0 C114.48 31.29, 145.99 63.99, 163.33 82 M82 0 C105.92 23.16, 130.07 47.95, 163.33 82 M163.33 82 C142.62 101.23, 125.46 121.1, 82 163.33 M163.33 82 C132.75 110.74, 102.25 140.97, 82 163.33 M82 163.33 C55.96 134.37, 28.28 108.86, 0 82 M82 163.33 C52.33 134.5, 23.3 105.24, 0 82 M0 82 C20.73 61.84, 43.46 41.27, 82 0 M0 82 C20.7 61.22, 42.22 38.74, 82 0" stroke="#1e1e1e" stroke-width="2" fill="none"></path></g><g transform="translate(180.640625 362.83333015441895) rotate(0 30 24)"><text x="30" y="19.3125" font-family="Cascadia, Segoe UI Emoji" font-size="20px" fill="#1e1e1e" text-anchor="middle" style="white-space: pre;" direction="ltr" dominant-baseline="alphabetic">選擇行</text><text x="30" y="43.3125" font-family="Cascadia, Segoe UI Emoji" font-size="20px" fill="#1e1e1e" text-anchor="middle" style="white-space: pre;" direction="ltr" dominant-baseline="alphabetic">動</text></g><g stroke-linecap="round" transform="translate(10 551.666675567627) rotate(0 82.5 24.16666603088379)"><path d="M0 0 C48.43 -0.34, 99.27 2.2, 165 0 M0 0 C53.32 1.27, 105.26 0.97, 165 0 M165 0 C164.34 17.74, 165.86 31.94, 165 48.33 M165 0 C164.12 11.61, 165.23 24.47, 165 48.33 M165 48.33 C128.01 46.5, 90.33 46.97, 0 48.33 M165 48.33 C104.58 47.9, 43.25 47.94, 0 48.33 M0 48.33 C1.03 38.3, -0.67 25.78, 0 0 M0 48.33 C-0.01 33.42, -0.6 20.66, 0 0" stroke="#1e1e1e" stroke-width="2" fill="none"></path></g><g transform="translate(32.5 563.8333415985107) rotate(0 60 12)"><text x="60" y="19.3125" font-family="Cascadia, Segoe UI Emoji" font-size="20px" fill="#1e1e1e" text-anchor="middle" style="white-space: pre;" direction="ltr" dominant-baseline="alphabetic">隨機選擇行動</text></g><g stroke-linecap="round" transform="translate(224.99999237060547 551.666675567627) rotate(0 103.44791412353516 24.16666603088379)"><path d="M0 0 C46.68 2.31, 94.05 1.18, 206.9 0 M0 0 C50.75 -0.66, 103.12 -1.62, 206.9 0 M206.9 0 C208.17 12.7, 205.71 28.54, 206.9 48.33 M206.9 0 C206.78 12.64, 205.8 24.21, 206.9 48.33 M206.9 48.33 C163.14 47.93, 118.47 47.58, 0 48.33 M206.9 48.33 C147.65 47.88, 88.54 47.73, 0 48.33 M0 48.33 C-1.03 32.46, -0.4 15.66, 0 0 M0 48.33 C-0.74 32.46, -0.22 15.27, 0 0" stroke="#1e1e1e" stroke-width="2" fill="none"></path></g><g transform="translate(252.58853149414062 563.8333415985107) rotate(0 75.859375 12)"><text x="75.859375" y="19.3125" font-family="Cascadia, Segoe UI Emoji" font-size="20px" fill="#1e1e1e" text-anchor="middle" style="white-space: pre;" direction="ltr" dominant-baseline="alphabetic">根據Q值選擇行動</text></g><g stroke-linecap="round" transform="translate(152.97395706176758 650.0000076293945) rotate(0 57.5 24.16666603088379)"><path d="M0 0 C26 -0.85, 50.13 0.14, 115 0 M0 0 C39.78 -1.1, 78.58 -0.24, 115 0 M115 0 C114.19 16.53, 114.16 31.85, 115 48.33 M115 0 C114.44 14.65, 114.3 28.08, 115 48.33 M115 48.33 C84.46 47.96, 50.9 48.85, 0 48.33 M115 48.33 C81.86 47.86, 50.35 48.61, 0 48.33 M0 48.33 C0.01 29.81, 0.93 13.04, 0 0 M0 48.33 C0.06 37.57, 1.42 27.45, 0 0" stroke="#1e1e1e" stroke-width="2" fill="none"></path></g><g transform="translate(170.47395706176758 662.1666736602783) rotate(0 40 12)"><text x="40" y="19.3125" font-family="Cascadia, Segoe UI Emoji" font-size="20px" fill="#1e1e1e" text-anchor="middle" style="white-space: pre;" direction="ltr" dominant-baseline="alphabetic">執行行動</text></g><g stroke-linecap="round" transform="translate(102.97395706176758 781.666675567627) rotate(0 107.5 24.16666603088379)"><path d="M0 0 C74.24 0.88, 151.02 -0.92, 215 0 M0 0 C67.06 1.72, 134.57 2.39, 215 0 M215 0 C213.56 8.78, 214.44 21.43, 215 48.33 M215 0 C213.83 19.6, 214.43 38.86, 215 48.33 M215 48.33 C150.08 48.42, 85.4 47.26, 0 48.33 M215 48.33 C153.7 48.13, 92.47 47.39, 0 48.33 M0 48.33 C0.78 33.56, -1.72 18.17, 0 0 M0 48.33 C1.17 31.51, 0.91 16.41, 0 0" stroke="#1e1e1e" stroke-width="2" fill="none"></path></g><g transform="translate(130.47395706176758 793.8333415985107) rotate(0 80 12)"><text x="80" y="19.3125" font-family="Cascadia, Segoe UI Emoji" font-size="20px" fill="#1e1e1e" text-anchor="middle" style="white-space: pre;" direction="ltr" dominant-baseline="alphabetic">獲取新狀態和獎勵</text></g><g stroke-linecap="round" transform="translate(103.80728912353516 880.0000057220459) rotate(0 106.66667175292969 106.66667175292969)"><path d="M107 0 C137.7 28.88, 167.53 61.8, 213.33 107 M107 0 C129.1 22.57, 149.46 43.14, 213.33 107 M213.33 107 C181.72 137.4, 153.21 166.14, 107 213.33 M213.33 107 C171.36 148.96, 130.73 189.9, 107 213.33 M107 213.33 C76.74 182.9, 46.74 152.47, 0 107 M107 213.33 C78.54 184.8, 49.12 156.52, 0 107 M0 107 C23.73 79.67, 52.16 54.81, 107 0 M0 107 C26.07 81.94, 52.01 54.02, 107 0" stroke="#1e1e1e" stroke-width="2" fill="none"></path></g><g transform="translate(170.640625 962.8333415985107) rotate(0 40 24)"><text x="40" y="19.3125" font-family="Cascadia, Segoe UI Emoji" font-size="20px" fill="#1e1e1e" text-anchor="middle" style="white-space: pre;" direction="ltr" dominant-baseline="alphabetic">檢查是否</text><text x="40" y="43.3125" font-family="Cascadia, Segoe UI Emoji" font-size="20px" fill="#1e1e1e" text-anchor="middle" style="white-space: pre;" direction="ltr" dominant-baseline="alphabetic">結束</text></g><g stroke-linecap="round" transform="translate(152.97395706176758 1176.6666870117188) rotate(0 57.5 24.16666603088379)"><path d="M0 0 C38.83 1.74, 75.25 0.73, 115 0 M0 0 C32.52 -1.33, 66.6 -1.34, 115 0 M115 0 C116.85 9.11, 116.62 19.35, 115 48.33 M115 0 C114.9 17.46, 114.7 33.41, 115 48.33 M115 48.33 C77.31 46.5, 39.55 48.38, 0 48.33 M115 48.33 C75.4 47.76, 35.34 48.23, 0 48.33 M0 48.33 C1.21 34.5, -0.64 24.09, 0 0 M0 48.33 C-0.07 35.23, -1.35 23.21, 0 0" stroke="#1e1e1e" stroke-width="2" fill="none"></path></g><g transform="translate(170.47395706176758 1188.8333530426025) rotate(0 40 12)"><text x="40" y="19.3125" font-family="Cascadia, Segoe UI Emoji" font-size="20px" fill="#1e1e1e" text-anchor="middle" style="white-space: pre;" direction="ltr" dominant-baseline="alphabetic">儲存經驗</text></g><g stroke-linecap="round" transform="translate(552.6718711853027 1176.6666870117188) rotate(0 57.5 24.16666603088379)"><path d="M0 0 C24.78 -0.6, 53.21 0.38, 115 0 M0 0 C42.01 0.07, 83.41 0.51, 115 0 M115 0 C117.15 14.21, 116.41 31.31, 115 48.33 M115 0 C114.81 17.22, 115.26 34.57, 115 48.33 M115 48.33 C84.6 48.07, 56.31 48.74, 0 48.33 M115 48.33 C84.65 48.59, 55.17 47.34, 0 48.33 M0 48.33 C-1.26 40.06, -1.03 29.28, 0 0 M0 48.33 C-1.14 29.4, 0.09 11.56, 0 0" stroke="#1e1e1e" stroke-width="2" fill="none"></path></g><g transform="translate(570.1718711853027 1188.8333530426025) rotate(0 40 12)"><text x="40" y="19.3125" font-family="Cascadia, Segoe UI Emoji" font-size="20px" fill="#1e1e1e" text-anchor="middle" style="white-space: pre;" direction="ltr" dominant-baseline="alphabetic">更新狀態</text></g><g stroke-linecap="round" transform="translate(199.22395706176758 1275.0000190734863) rotate(0 82.5 24.16666603088379)"><path d="M0 0 C57.19 0.97, 116.11 -1.64, 165 0 M0 0 C39.31 0.82, 80.56 1.92, 165 0 M165 0 C166.35 10.66, 166.6 22.24, 165 48.33 M165 0 C165.16 17.59, 164.5 35.41, 165 48.33 M165 48.33 C127.58 49.95, 87.59 48.64, 0 48.33 M165 48.33 C116.8 48.05, 68.31 49.33, 0 48.33 M0 48.33 C-0.59 37.06, 2.01 23.41, 0 0 M0 48.33 C0.72 37.64, -0.12 24.77, 0 0" stroke="#1e1e1e" stroke-width="2" fill="none"></path></g><g transform="translate(221.72395706176758 1287.1666851043701) rotate(0 60 12)"><text x="60" y="19.3125" font-family="Cascadia, Segoe UI Emoji" font-size="20px" fill="#1e1e1e" text-anchor="middle" style="white-space: pre;" direction="ltr" dominant-baseline="alphabetic">檢查是否訓練</text></g><g stroke-linecap="round" transform="translate(277.9739570617676 1406.6666870117188) rotate(0 145 24.16666603088379)"><path d="M0 0 C87.29 -2.28, 171.75 -1.18, 290 0 M0 0 C70.32 1.03, 139.69 0.94, 290 0 M290 0 C291.42 10.48, 291.58 20.56, 290 48.33 M290 0 C289.71 13.62, 289.44 27.2, 290 48.33 M290 48.33 C194.85 49.53, 100.79 48.75, 0 48.33 M290 48.33 C191.74 46.71, 94.53 46.01, 0 48.33 M0 48.33 C1.96 29.61, -1.08 7.74, 0 0 M0 48.33 C-0.72 34.03, -0.09 21.4, 0 0" stroke="#1e1e1e" stroke-width="2" fill="none"></path></g><g transform="translate(312.9739570617676 1418.8333530426025) rotate(0 110 12)"><text x="110" y="19.3125" font-family="Cascadia, Segoe UI Emoji" font-size="20px" fill="#1e1e1e" text-anchor="middle" style="white-space: pre;" direction="ltr" dominant-baseline="alphabetic">從記憶中抽取批次並學習</text></g><g stroke-linecap="round" transform="translate(552.6718711853027 1275.0000190734863) rotate(0 57.5 24.16666603088379)"><path d="M0 0 C38.72 0.74, 78.54 -0.68, 115 0 M0 0 C32.15 -0.26, 64.86 -0.63, 115 0 M115 0 C116.64 13.03, 114.98 27.32, 115 48.33 M115 0 C114.12 13.33, 115.06 27.72, 115 48.33 M115 48.33 C73.5 47.1, 33.11 47.69, 0 48.33 M115 48.33 C90.3 48.25, 67.32 48.36, 0 48.33 M0 48.33 C-1.71 28.28, -0.83 12.68, 0 0 M0 48.33 C0.32 30.56, 0.14 13.24, 0 0" stroke="#1e1e1e" stroke-width="2" fill="none"></path></g><g transform="translate(570.1718711853027 1287.1666851043701) rotate(0 40 12)"><text x="40" y="19.3125" font-family="Cascadia, Segoe UI Emoji" font-size="20px" fill="#1e1e1e" text-anchor="middle" style="white-space: pre;" direction="ltr" dominant-baseline="alphabetic">結束本輪</text></g><g stroke-linecap="round"><g transform="translate(468.922 58.83300190734872) rotate(0 0 21.84999999999991)"><path d="M-0.06 -0.32 C-0.06 7, -0.49 36.2, -0.45 43.62 M-0.76 0.7 C-0.55 8.14, 0.44 37.16, 0.55 44.28" stroke="#1e1e1e" stroke-width="2" fill="none"></path></g><g transform="translate(468.922 58.83300190734872) rotate(0 0 21.84999999999991)"><path d="M-7.46 23.95 C-6.37 27.52, -4.2 33.01, 0.55 44.28 M-7.46 23.95 C-4.78 32.2, -1.31 40.31, 0.55 44.28" stroke="#1e1e1e" stroke-width="2" fill="none"></path></g><g transform="translate(468.922 58.83300190734872) rotate(0 0 21.84999999999991)"><path d="M7.48 23.56 C5.35 27.2, 4.29 32.79, 0.55 44.28 M7.48 23.56 C4.25 32.03, 1.81 40.29, 0.55 44.28" stroke="#1e1e1e" stroke-width="2" fill="none"></path></g></g><mask></mask><g stroke-linecap="round"><g transform="translate(468.922 157.16700190734855) rotate(0 0 21.850000000000023)"><path d="M-0.45 -0.08 C-0.42 7.35, 0.15 36.85, 0.16 44.23 M0.31 -0.6 C0.3 6.72, -0.26 36.21, -0.19 43.53" stroke="#1e1e1e" stroke-width="2" fill="none"></path></g><g transform="translate(468.922 157.16700190734855) rotate(0 0 21.850000000000023)"><path d="M-7.53 22.95 C-5.61 29.21, -2.39 34.17, -0.19 43.53 M-7.53 22.95 C-4.91 31.14, -1.97 39.09, -0.19 43.53" stroke="#1e1e1e" stroke-width="2" fill="none"></path></g><g transform="translate(468.922 157.16700190734855) rotate(0 0 21.850000000000023)"><path d="M7.42 23.05 C5.01 29.22, 3.92 34.15, -0.19 43.53 M7.42 23.05 C4.29 31.24, 1.49 39.15, -0.19 43.53" stroke="#1e1e1e" stroke-width="2" fill="none"></path></g></g><mask></mask><g stroke-linecap="round"><g transform="translate(386.922 247.02800190734865) rotate(0 -88.27600000000001 26.3365)"><path d="M0.34 1.15 C-29.04 6.84, -147.64 25.3, -177.29 33.98 C-206.94 42.66, -177.63 50.01, -177.55 53.24 M-0.94 0.71 C-29.85 6.1, -145.98 23.98, -175.02 32.39 C-204.06 40.81, -174.9 48.06, -175.18 51.19" stroke="#1e1e1e" stroke-width="2" fill="none"></path></g><g transform="translate(386.922 247.02800190734865) rotate(0 -88.27600000000001 26.3365)"><path d="M-184.66 48.5 C-181.66 48.37, -179.71 48.82, -175.18 51.19 M-184.66 48.5 C-181.37 49.71, -178.18 50.24, -175.18 51.19" stroke="#1e1e1e" stroke-width="2" fill="none"></path></g><g transform="translate(386.922 247.02800190734865) rotate(0 -88.27600000000001 26.3365)"><path d="M-180.71 43.04 C-178.58 44.11, -177.49 45.75, -175.18 51.19 M-180.71 43.04 C-178.81 46.17, -176.98 48.59, -175.18 51.19" stroke="#1e1e1e" stroke-width="2" fill="none"></path></g></g><mask></mask><g mask="url(#mask-NCg_HTl8AN3JGSh61mocS)" stroke-linecap="round"><g transform="translate(171.048 429.40700190734856) rotate(0 -39.274 58.23000000000002)"><path d="M-0.84 1.01 C-14.16 14.35, -66.55 61.8, -79.55 81.16 C-92.55 100.52, -78.99 111.15, -78.82 117.17 M0.92 0.5 C-12.06 13.98, -63.92 60.22, -77.36 79.33 C-90.8 98.45, -79.57 109.24, -79.73 115.21" stroke="#1e1e1e" stroke-width="2" fill="none"></path></g><g transform="translate(171.048 429.40700190734856) rotate(0 -39.274 58.23000000000002)"><path d="M-90.31 100.73 C-85.18 104.06, -82.37 109.91, -79.73 115.21 M-90.31 100.73 C-86.68 105.72, -82.47 110.9, -79.73 115.21" stroke="#1e1e1e" stroke-width="2" fill="none"></path></g><g transform="translate(171.048 429.40700190734856) rotate(0 -39.274 58.23000000000002)"><path d="M-78.53 97.31 C-77.24 101.69, -78.3 108.66, -79.73 115.21 M-78.53 97.31 C-79.13 103.61, -79.16 110.02, -79.73 115.21" stroke="#1e1e1e" stroke-width="2" fill="none"></path></g></g><mask id="mask-NCg_HTl8AN3JGSh61mocS"><rect x="0" y="0" fill="#fff" width="349.596" height="646.8670019073486"></rect><rect x="52.5" y="498.00000190734863" fill="#000" width="80" height="24" opacity="1"></rect></mask><g transform="translate(52.5 498.00000190734863) rotate(0 76.41829987167574 -9.758199042908018)"><text x="40" y="19.3125" font-family="Cascadia, Segoe UI Emoji" font-size="20px" fill="#1e1e1e" text-anchor="middle" style="white-space: pre;" direction="ltr" dominant-baseline="alphabetic">隨機選擇</text></g><g mask="url(#mask-aor2pZ2dZLPk2SPg-IyeP)" stroke-linecap="round"><g transform="translate(250.89999999999998 429.40700190734856) rotate(0 38.774 58.23000000000002)"><path d="M-1 0.57 C12.02 13.95, 64.18 61.86, 77.28 81.31 C90.37 100.76, 77.55 111.44, 77.56 117.27 M0.67 -0.18 C13.59 13.38, 63.5 60.3, 76.19 79.56 C88.87 98.81, 76.58 109.07, 76.79 115.36" stroke="#1e1e1e" stroke-width="2" fill="none"></path></g><g transform="translate(250.89999999999998 429.40700190734856) rotate(0 38.774 58.23000000000002)"><path d="M76.03 97.44 C77.21 101.16, 77.6 105.7, 76.79 115.36 M76.03 97.44 C76.51 103.87, 76.19 110.49, 76.79 115.36" stroke="#1e1e1e" stroke-width="2" fill="none"></path></g><g transform="translate(250.89999999999998 429.40700190734856) rotate(0 38.774 58.23000000000002)"><path d="M87.73 101.14 C86.18 103.91, 83.89 107.6, 76.79 115.36 M87.73 101.14 C83.91 106.19, 79.29 111.45, 76.79 115.36" stroke="#1e1e1e" stroke-width="2" fill="none"></path></g></g><mask id="mask-aor2pZ2dZLPk2SPg-IyeP"><rect x="0" y="0" fill="#fff" width="428.448" height="646.8670019073486"></rect><rect x="288.448" y="498.00000190734863" fill="#000" width="80" height="24" opacity="1"></rect></mask><g transform="translate(288.448 498.00000190734863) rotate(0 3.535259985682103 -10.047555627158886)"><text x="40" y="19.3125" font-family="Cascadia, Segoe UI Emoji" font-size="20px" fill="#1e1e1e" text-anchor="middle" style="white-space: pre;" direction="ltr" dominant-baseline="alphabetic">利用模型</text></g><g stroke-linecap="round"><g transform="translate(93 600.5000019073486) rotate(0 27.290999999999997 23.581999999999994)"><path d="M-0.27 0.71 C8.99 8.61, 45.49 40.27, 54.59 47.98 M1.79 0.04 C10.98 7.56, 45.03 38.25, 53.65 46.28" stroke="#1e1e1e" stroke-width="2" fill="none"></path></g><g transform="translate(93 600.5000019073486) rotate(0 27.290999999999997 23.581999999999994)"><path d="M30.53 36.76 C36.77 38.89, 41.94 40.56, 53.65 46.28 M30.53 36.76 C36.72 39.37, 43.03 41.91, 53.65 46.28" stroke="#1e1e1e" stroke-width="2" fill="none"></path></g><g transform="translate(93 600.5000019073486) rotate(0 27.290999999999997 23.581999999999994)"><path d="M42.06 24.13 C45.86 28.97, 48.54 33.37, 53.65 46.28 M42.06 24.13 C45 30.31, 48.03 36.44, 53.65 46.28" stroke="#1e1e1e" stroke-width="2" fill="none"></path></g></g><mask></mask><g stroke-linecap="round"><g transform="translate(327.948 600.5000019073486) rotate(0 -27.290999999999997 23.581999999999994)"><path d="M0.01 0.81 C-9.08 8.52, -45.76 39.29, -54.81 46.98 M-1.45 0.19 C-10.69 8.03, -46.97 40.43, -55.88 48.42" stroke="#1e1e1e" stroke-width="2" fill="none"></path></g><g transform="translate(327.948 600.5000019073486) rotate(0 -27.290999999999997 23.581999999999994)"><path d="M-44.06 26.39 C-45.85 32.12, -50.79 39.12, -55.88 48.42 M-44.06 26.39 C-48.17 32.28, -50.56 39.24, -55.88 48.42" stroke="#1e1e1e" stroke-width="2" fill="none"></path></g><g transform="translate(327.948 600.5000019073486) rotate(0 -27.290999999999997 23.581999999999994)"><path d="M-32.66 39.14 C-37.69 41.33, -45.79 44.79, -55.88 48.42 M-32.66 39.14 C-39.93 41.41, -45.54 44.78, -55.88 48.42" stroke="#1e1e1e" stroke-width="2" fill="none"></path></g></g><mask></mask><g stroke-linecap="round"><g transform="translate(210.47399999999993 698.8330019073487) rotate(0 0 38.51700000000005)"><path d="M-0.23 -0.19 C-0.18 12.48, 0.35 63.98, 0.3 76.82 M-1.81 -1.33 C-1.89 11.45, -0.53 65.01, -0.48 78.25" stroke="#1e1e1e" stroke-width="2" fill="none"></path></g><g transform="translate(210.47399999999993 698.8330019073487) rotate(0 0 38.51700000000005)"><path d="M-9.4 54.89 C-6.87 62.44, -4.24 68.13, -0.48 78.25 M-9.4 54.89 C-6.75 62.04, -3.86 67.87, -0.48 78.25" stroke="#1e1e1e" stroke-width="2" fill="none"></path></g><g transform="translate(210.47399999999993 698.8330019073487) rotate(0 0 38.51700000000005)"><path d="M7.7 54.62 C5.09 62.22, 2.58 67.99, -0.48 78.25 M7.7 54.62 C5.46 61.8, 3.45 67.71, -0.48 78.25" stroke="#1e1e1e" stroke-width="2" fill="none"></path></g></g><mask></mask><g stroke-linecap="round"><g transform="translate(210.97399999999993 830.5000019073486) rotate(0 -0.3020000000000209 22.10050000000001)"><path d="M0.14 -0.1 C0.02 7.27, -0.64 36.77, -0.83 44.12 M-0.45 -0.62 C-0.66 6.84, -1.48 37.26, -1.38 44.79" stroke="#1e1e1e" stroke-width="2" fill="none"></path></g><g transform="translate(210.97399999999993 830.5000019073486) rotate(0 -0.3020000000000209 22.10050000000001)"><path d="M-8.73 23.94 C-6.86 29.38, -4.75 34.97, -1.38 44.79 M-8.73 23.94 C-6.43 29.32, -4.78 35.09, -1.38 44.79" stroke="#1e1e1e" stroke-width="2" fill="none"></path></g><g transform="translate(210.97399999999993 830.5000019073486) rotate(0 -0.3020000000000209 22.10050000000001)"><path d="M6.39 24.09 C4.01 29.51, 1.87 35.05, -1.38 44.79 M6.39 24.09 C4.62 29.47, 2.21 35.19, -1.38 44.79" stroke="#1e1e1e" stroke-width="2" fill="none"></path></g></g><mask></mask><g mask="url(#mask-5az_NA9POZUrNV9szz1r0)" stroke-linecap="round"><g transform="translate(210.97399999999993 1094.3330019073487) rotate(0 -0.25 38.26699999999994)"><path d="M-0.49 -0.17 C-0.76 6.58, -1.37 27.42, -1.31 40.29 C-1.26 53.16, -0.44 71.1, -0.19 77.06 M1.45 -1.3 C1.53 5.64, 1.34 28.92, 0.97 41.64 C0.6 54.35, -0.77 69.12, -0.79 74.99" stroke="#1e1e1e" stroke-width="2" fill="none"></path></g><g transform="translate(210.97399999999993 1094.3330019073487) rotate(0 -0.25 38.26699999999994)"><path d="M-6.19 57.89 C-4.71 62.26, -3.26 69.51, -0.79 74.99 M-6.19 57.89 C-4.29 63.71, -2.9 70, -0.79 74.99" stroke="#1e1e1e" stroke-width="2" fill="none"></path></g><g transform="translate(210.97399999999993 1094.3330019073487) rotate(0 -0.25 38.26699999999994)"><path d="M6.07 58.42 C3.56 62.57, 1.02 69.64, -0.79 74.99 M6.07 58.42 C3.75 64.01, 0.93 70.12, -0.79 74.99" stroke="#1e1e1e" stroke-width="2" fill="none"></path></g></g><mask id="mask-5az_NA9POZUrNV9szz1r0"><rect x="0" y="0" fill="#fff" width="311.47399999999993" height="1271.8670019073486"></rect><rect x="200.47399999999993" y="1123.0000019073486" fill="#000" width="20" height="24" opacity="1"></rect></mask><g transform="translate(200.47399999999993 1123.0000019073486) rotate(0 10.57578506166476 9.213434562929933)"><text x="10" y="19.3125" font-family="Cascadia, Segoe UI Emoji" font-size="20px" fill="#1e1e1e" text-anchor="middle" style="white-space: pre;" direction="ltr" dominant-baseline="alphabetic">否</text></g><g mask="url(#mask-Vjnk9XvJIRKUwbYW-iocQ)" stroke-linecap="round"><g transform="translate(288.77 1016.5380019073486) rotate(0 160.70100000000002 77.16449999999998)"><path d="M-0.81 -0.37 C52.89 19.49, 267.89 93.29, 321.71 118.99 C375.53 144.69, 322.18 147.96, 322.11 153.84 M0.96 -1.61 C54.57 17.9, 267.47 91.06, 320.93 117.14 C374.39 143.23, 321.62 148.54, 321.72 154.89" stroke="#1e1e1e" stroke-width="2" fill="none"></path></g><g transform="translate(288.77 1016.5380019073486) rotate(0 160.70100000000002 77.16449999999998)"><path d="M332.92 140.89 C329.44 144.9, 327.88 149.13, 321.72 154.89 M332.92 140.89 C329.49 144.83, 326.85 147.34, 321.72 154.89" stroke="#1e1e1e" stroke-width="2" fill="none"></path></g><g transform="translate(288.77 1016.5380019073486) rotate(0 160.70100000000002 77.16449999999998)"><path d="M339.3 151.36 C334.19 152.62, 330.98 154.13, 321.72 154.89 M339.3 151.36 C334.23 152.59, 329.94 152.38, 321.72 154.89" stroke="#1e1e1e" stroke-width="2" fill="none"></path></g></g><mask id="mask-Vjnk9XvJIRKUwbYW-iocQ"><rect x="0" y="0" fill="#fff" width="710.172" height="1271.8670019073486"></rect><rect x="600.172" y="1123.0000019073486" fill="#000" width="20" height="24" opacity="1"></rect></mask><g transform="translate(600.172 1123.0000019073486) rotate(0 -138.93323794641054 -29.822342844260902)"><text x="10" y="19.3125" font-family="Cascadia, Segoe UI Emoji" font-size="20px" fill="#1e1e1e" text-anchor="middle" style="white-space: pre;" direction="ltr" dominant-baseline="alphabetic">是</text></g><g stroke-linecap="round"><g transform="translate(210.97399999999993 1225.5000019073486) rotate(0 15.433499999999981 22.995000000000005)"><path d="M0.31 0.53 C5.71 8.17, 26.5 37.94, 31.58 45.5 M-0.98 -0.24 C4.39 7.6, 25.84 38.88, 31 46.78" stroke="#1e1e1e" stroke-width="2" fill="none"></path></g><g transform="translate(210.97399999999993 1225.5000019073486) rotate(0 15.433499999999981 22.995000000000005)"><path d="M10.8 32.05 C16.32 36.6, 19.31 38.71, 31 46.78 M10.8 32.05 C16.29 35.37, 21.57 40.92, 31 46.78" stroke="#1e1e1e" stroke-width="2" fill="none"></path></g><g transform="translate(210.97399999999993 1225.5000019073486) rotate(0 15.433499999999981 22.995000000000005)"><path d="M25 22.51 C27.19 29.31, 26.89 33.63, 31 46.78 M25 22.51 C26.31 28.65, 27.47 36.97, 31 46.78" stroke="#1e1e1e" stroke-width="2" fill="none"></path></g></g><mask></mask><g mask="url(#mask-lVg-2atDSCVCtDIA-wRr2)" stroke-linecap="round"><g transform="translate(282.22399999999993 1323.8330019073487) rotate(0 41.797500000000014 40.047500000000014)"><path d="M0.71 -0.49 C14.58 12.75, 69.82 66.47, 83.52 79.98 M-0.38 -1.8 C13.3 11.59, 68.84 68.09, 82.53 81.46" stroke="#1e1e1e" stroke-width="2" fill="none"></path></g><g transform="translate(282.22399999999993 1323.8330019073487) rotate(0 41.797500000000014 40.047500000000014)"><path d="M59.87 70.9 C66.48 74.08, 74.5 76.49, 82.53 81.46 M59.87 70.9 C66.59 75.04, 74.73 77.67, 82.53 81.46" stroke="#1e1e1e" stroke-width="2" fill="none"></path></g><g transform="translate(282.22399999999993 1323.8330019073487) rotate(0 41.797500000000014 40.047500000000014)"><path d="M71.96 58.8 C74.69 66, 78.76 72.35, 82.53 81.46 M71.96 58.8 C74.58 66.91, 78.65 73.61, 82.53 81.46" stroke="#1e1e1e" stroke-width="2" fill="none"></path></g></g><mask id="mask-lVg-2atDSCVCtDIA-wRr2"><rect x="0" y="0" fill="#fff" width="466.81899999999996" height="1504.9280019073487"></rect><rect x="314.02150000000006" y="1351.8805019073488" fill="#000" width="20" height="24" opacity="1"></rect></mask><g transform="translate(314.02149999999995 1351.8805019073488) rotate(0 9.77536394861994 11.781489207046093)"><text x="10" y="19.3125" font-family="Cascadia, Segoe UI Emoji" font-size="20px" fill="#1e1e1e" text-anchor="middle" style="white-space: pre;" direction="ltr" dominant-baseline="alphabetic">是</text></g><g mask="url(#mask-VcpP-zML601PkG5rMO5vt)" stroke-linecap="round"><g transform="translate(364.22399999999993 1276.9980019073487) rotate(0 52.349000000000046 -508.09900000000005)"><path d="M-0.07 -0.12 C17.14 -4.46, 86.6 142.96, 104 -26.56 C121.41 -196.08, 104.41 -852.4, 104.35 -1017.26 M-1.57 -1.22 C15.97 -5.89, 88.85 140.76, 106.35 -28.45 C123.84 -197.66, 103.91 -852.18, 103.41 -1016.5" stroke="#1e1e1e" stroke-width="2" fill="none"></path></g><g transform="translate(364.22399999999993 1276.9980019073487) rotate(0 52.349000000000046 -508.09900000000005)"><path d="M112.34 -993.15 C109.04 -1002.7, 106.75 -1010.5, 103.41 -1016.5 M112.34 -993.15 C110.29 -998.59, 109.76 -1003.42, 103.41 -1016.5" stroke="#1e1e1e" stroke-width="2" fill="none"></path></g><g transform="translate(364.22399999999993 1276.9980019073487) rotate(0 52.349000000000046 -508.09900000000005)"><path d="M95.24 -992.87 C98.08 -1002.51, 101.94 -1010.41, 103.41 -1016.5 M95.24 -992.87 C96.81 -998.43, 99.9 -1003.32, 103.41 -1016.5" stroke="#1e1e1e" stroke-width="2" fill="none"></path></g></g><mask id="mask-VcpP-zML601PkG5rMO5vt"><rect x="0" y="0" fill="#fff" width="568.922" height="2394.1960019073485"></rect><rect x="458.922" y="1238.0000019073486" fill="#000" width="20" height="24" opacity="1"></rect></mask><g transform="translate(458.922 1238.0000019073486) rotate(0 -38.721977830020364 -442.0377339833449)"><text x="10" y="19.3125" font-family="Cascadia, Segoe UI Emoji" font-size="20px" fill="#1e1e1e" text-anchor="middle" style="white-space: pre;" direction="ltr" dominant-baseline="alphabetic">否</text></g><g stroke-linecap="round"><g transform="translate(525.1480000000001 1406.1670019073485) rotate(0 88.76199999999994 -578.1949999999999)"><path d="M-0.7 0.44 C28.85 -6.58, 171.91 150.5, 177.18 -42.23 C182.45 -234.95, 55.18 -970.12, 30.91 -1155.92 M1.14 -0.38 C30.5 -7.27, 170.7 151.69, 176.05 -41.25 C181.4 -234.19, 57.33 -972.18, 33.25 -1158.01" stroke="#1e1e1e" stroke-width="2" fill="none"></path></g><g transform="translate(525.1480000000001 1406.1670019073485) rotate(0 88.76199999999994 -578.1949999999999)"><path d="M45.15 -1136.03 C42.4 -1143.13, 36.41 -1150.77, 33.25 -1158.01 M45.15 -1136.03 C42.18 -1143.97, 37.89 -1150.14, 33.25 -1158.01" stroke="#1e1e1e" stroke-width="2" fill="none"></path></g><g transform="translate(525.1480000000001 1406.1670019073485) rotate(0 88.76199999999994 -578.1949999999999)"><path d="M28.23 -1133.52 C30.46 -1141.26, 29.44 -1149.64, 33.25 -1158.01 M28.23 -1133.52 C31.02 -1142.23, 32.46 -1149.24, 33.25 -1158.01" stroke="#1e1e1e" stroke-width="2" fill="none"></path></g></g><mask></mask><g stroke-linecap="round"><g transform="translate(610.172 1225.5000019073486) rotate(0 0 21.850000000000023)"><path d="M-0.16 -0.49 C-0.19 6.8, -0.48 36.6, -0.48 43.92 M0.76 0.45 C0.93 7.56, 0.74 35.83, 0.5 43.06" stroke="#1e1e1e" stroke-width="2" fill="none"></path></g><g transform="translate(610.172 1225.5000019073486) rotate(0 0 21.850000000000023)"><path d="M-6.61 22.4 C-5.74 26.53, -2.74 32.05, 0.5 43.06 M-6.61 22.4 C-4.39 27.95, -2.86 32.29, 0.5 43.06" stroke="#1e1e1e" stroke-width="2" fill="none"></path></g><g transform="translate(610.172 1225.5000019073486) rotate(0 0 21.850000000000023)"><path d="M8.33 22.66 C5.59 26.71, 4.97 32.16, 0.5 43.06 M8.33 22.66 C6.87 28.11, 4.71 32.39, 0.5 43.06" stroke="#1e1e1e" stroke-width="2" fill="none"></path></g></g><mask></mask></svg>